<?xml version="1.0" standalone="no"?>
<!DOCTYPE svg PUBLIC "-//W3C//DTD SVG 20010904//EN"
 "http://www.w3.org/TR/2001/REC-SVG-20010904/DTD/svg10.dtd">
<svg version="1.0" xmlns="http://www.w3.org/2000/svg"
 width="312.000000pt" height="303.000000pt" viewBox="0 0 312.000000 303.000000"
 preserveAspectRatio="xMidYMid meet">

<g transform="translate(0.000000,303.000000) scale(0.100000,-0.100000)"
fill="#000000" stroke="none">
<path d="M1020 2252 c-16 -13 -24 -32 -28 -70 l-5 -52 -104 0 c-103 0 -104 0
-114 -26 -5 -15 -8 -77 -7 -138 l3 -111 783 -3 782 -2 0 128 c0 86 -4 132 -12
140 -8 8 -48 12 -115 12 l-103 0 0 45 c0 35 -6 52 -25 70 -51 52 -105 18 -105
-65 l0 -50 -425 0 -425 0 0 50 c0 79 -49 114 -100 72z"/>
<path d="M150 733 c-14 -9 -28 -22 -32 -27 -4 -6 -8 -140 -8 -299 l0 -287 328
2 327 3 3 36 c2 26 -3 40 -19 55 -19 17 -41 19 -253 24 l-231 5 -5 235 c-3
129 -7 236 -8 237 -5 6 -62 33 -69 33 -5 0 -20 -8 -33 -17z"/>
<path d="M2870 733 c-14 -9 -27 -18 -30 -20 -3 -3 -7 -109 -10 -236 l-5 -232
-233 -5 c-233 -5 -234 -5 -253 -29 -13 -15 -19 -36 -17 -55 l3 -31 326 -3 327
-2 6 22 c3 13 6 137 6 276 0 275 -4 297 -55 320 -33 15 -36 15 -65 -5z"/>
</g>
</svg>
